<svg width="33" height="33" viewBox="0 0 33 33" fill="none" xmlns="http://www.w3.org/2000/svg">
<path d="M16.6715 2.11877C13.7551 2.12208 10.9592 3.28207 8.89699 5.34425C6.8348 7.40644 5.67482 10.2024 5.67151 13.1188C5.67151 22.5313 15.6715 29.6438 16.0965 29.9438C16.2668 30.0572 16.4669 30.1177 16.6715 30.1177C16.8761 30.1177 17.0762 30.0572 17.2465 29.9438C17.6715 29.6438 27.6715 22.5313 27.6715 13.1188C27.6682 10.2024 26.5082 7.40644 24.446 5.34425C22.3838 3.28207 19.5879 2.12208 16.6715 2.11877ZM16.6715 9.11877C17.4626 9.11877 18.236 9.35337 18.8938 9.7929C19.5516 10.2324 20.0643 10.8571 20.367 11.588C20.6698 12.3189 20.749 13.1232 20.5947 13.8991C20.4403 14.6751 20.0593 15.3878 19.4999 15.9472C18.9405 16.5066 18.2278 16.8876 17.4519 17.0419C16.6759 17.1963 15.8717 17.117 15.1408 16.8143C14.4099 16.5115 13.7852 15.9989 13.3456 15.3411C12.9061 14.6833 12.6715 13.9099 12.6715 13.1188C12.6715 12.0579 13.0929 11.0405 13.8431 10.2903C14.5932 9.5402 15.6106 9.11877 16.6715 9.11877Z" fill="currentColor"/>
</svg>
